<?xml version="1.0" encoding="UTF-8"?><svg xmlns="http://www.w3.org/2000/svg" viewBox="0 0 640 360" width="640" height="360" role="img" class="inkplot"><defs><clipPath id="plot-clip"><rect x="42" y="40" width="460" height="286"/></clipPath></defs><rect x="0" y="0" width="640" height="360" fill="#FFFFFF"/><path class="grid-line" d="M 42 326 L 502 326" fill="none" stroke="#E7EAF0" stroke-width="1"/><text x="34" y="330" fill="#626B78" text-anchor="end" font-size="11" font-family="system-ui, -apple-system, BlinkMacSystemFont, 'Segoe UI', sans-serif, 'Noto Sans CJK JP'">0</text><path class="grid-line" d="M 42 254.5 L 502 254.5" fill="none" stroke="#E7EAF0" stroke-width="1"/><text x="34" y="258.5" fill="#626B78" text-anchor="end" font-size="11" font-family="system-ui, -apple-system, BlinkMacSystemFont, 'Segoe UI', sans-serif, 'Noto Sans CJK JP'">10</text><path class="grid-line" d="M 42 183 L 502 183" fill="none" stroke="#E7EAF0" stroke-width="1"/><text x="34" y="187" fill="#626B78" text-anchor="end" font-size="11" font-family="system-ui, -apple-system, BlinkMacSystemFont, 'Segoe UI', sans-serif, 'Noto Sans CJK JP'">20</text><path class="grid-line" d="M 42 111.5 L 502 111.5" fill="none" stroke="#E7EAF0" stroke-width="1"/><text x="34" y="115.5" fill="#626B78" text-anchor="end" font-size="11" font-family="system-ui, -apple-system, BlinkMacSystemFont, 'Segoe UI', sans-serif, 'Noto Sans CJK JP'">30</text><path class="grid-line" d="M 88 40 L 88 326" fill="none" stroke="#E7EAF0" stroke-width="1"/><text x="88" y="344" fill="#626B78" text-anchor="middle" font-size="10" font-family="system-ui, -apple-system, BlinkMacSystemFont, 'Segoe UI', sans-serif, 'Noto Sans CJK JP'">Mon</text><path class="grid-line" d="M 180 40 L 180 326" fill="none" stroke="#E7EAF0" stroke-width="1"/><text x="180" y="344" fill="#626B78" text-anchor="middle" font-size="10" font-family="system-ui, -apple-system, BlinkMacSystemFont, 'Segoe UI', sans-serif, 'Noto Sans CJK JP'">Tue</text><path class="grid-line" d="M 272 40 L 272 326" fill="none" stroke="#E7EAF0" stroke-width="1"/><text x="272" y="344" fill="#626B78" text-anchor="middle" font-size="10" font-family="system-ui, -apple-system, BlinkMacSystemFont, 'Segoe UI', sans-serif, 'Noto Sans CJK JP'">Wed</text><path class="grid-line" d="M 364 40 L 364 326" fill="none" stroke="#E7EAF0" stroke-width="1"/><text x="364" y="344" fill="#626B78" text-anchor="middle" font-size="10" font-family="system-ui, -apple-system, BlinkMacSystemFont, 'Segoe UI', sans-serif, 'Noto Sans CJK JP'">Thu</text><path class="grid-line" d="M 456 40 L 456 326" fill="none" stroke="#E7EAF0" stroke-width="1"/><text x="456" y="344" fill="#626B78" text-anchor="middle" font-size="10" font-family="system-ui, -apple-system, BlinkMacSystemFont, 'Segoe UI', sans-serif, 'Noto Sans CJK JP'">Fri</text><path class="axis-line" d="M 42 40 L 42 326 L 502 326" fill="none" stroke="#626B78" stroke-width="1"/><text x="320" y="22" fill="#20242B" text-anchor="middle" font-size="15" font-family="system-ui, -apple-system, BlinkMacSystemFont, 'Segoe UI', sans-serif, 'Noto Sans CJK JP'">Traffic by channel</text><path class="mark-line" d="M 390 54 L 406 54" fill="none" stroke="#0072B2" stroke-width="2"/><text x="412" y="58" fill="#20242B" text-anchor="start" font-size="11" font-family="system-ui, -apple-system, BlinkMacSystemFont, 'Segoe UI', sans-serif, 'Noto Sans CJK JP'">Direct</text><path class="mark-line" d="M 390 72 L 406 72" fill="none" stroke="#E69F00" stroke-width="2"/><text x="412" y="76" fill="#20242B" text-anchor="start" font-size="11" font-family="system-ui, -apple-system, BlinkMacSystemFont, 'Segoe UI', sans-serif, 'Noto Sans CJK JP'">Search</text><g class="series-marks" clip-path="url(#plot-clip)"><g class="series series-0" data-series="0"><rect class="bar-mark" x="52.12" y="240.2" width="70.76" height="85.8" fill="#0072B2"/><rect class="bar-mark" x="144.12" y="211.6" width="70.76" height="114.4" fill="#0072B2"/><rect class="bar-mark" x="236.12" y="247.35" width="70.76" height="78.65" fill="#0072B2"/><rect class="bar-mark" x="328.12" y="190.15" width="70.76" height="135.85" fill="#0072B2"/><rect class="bar-mark" x="420.12" y="168.7" width="70.76" height="157.3" fill="#0072B2"/></g><g class="series series-1" data-series="1"><rect class="bar-mark" x="52.12" y="183" width="70.76" height="57.2" fill="#E69F00"/><rect class="bar-mark" x="144.12" y="147.25" width="70.76" height="64.35" fill="#E69F00"/><rect class="bar-mark" x="236.12" y="154.4" width="70.76" height="92.95" fill="#E69F00"/><rect class="bar-mark" x="328.12" y="118.65" width="70.76" height="71.5" fill="#E69F00"/><rect class="bar-mark" x="420.12" y="68.6" width="70.76" height="100.1" fill="#E69F00"/></g></g></svg>