<?xml version="1.0" encoding="UTF-8"?><svg xmlns="http://www.w3.org/2000/svg" viewBox="0 0 640 360" width="640" height="360" role="img" class="inkplot"><defs><clipPath id="plot-clip"><rect x="42" y="40" width="580" height="286"/></clipPath></defs><rect x="0" y="0" width="640" height="360" fill="#FFFFFF"/><path class="grid-line" d="M 42 326 L 622 326" fill="none" stroke="#E7EAF0" stroke-width="1"/><text x="34" y="330" fill="#626B78" text-anchor="end" font-size="11" font-family="system-ui, -apple-system, BlinkMacSystemFont, 'Segoe UI', sans-serif, 'Noto Sans CJK JP'">2</text><path class="grid-line" d="M 42 230.67 L 622 230.67" fill="none" stroke="#E7EAF0" stroke-width="1"/><text x="34" y="234.67" fill="#626B78" text-anchor="end" font-size="11" font-family="system-ui, -apple-system, BlinkMacSystemFont, 'Segoe UI', sans-serif, 'Noto Sans CJK JP'">4</text><path class="grid-line" d="M 42 135.33 L 622 135.33" fill="none" stroke="#E7EAF0" stroke-width="1"/><text x="34" y="139.33" fill="#626B78" text-anchor="end" font-size="11" font-family="system-ui, -apple-system, BlinkMacSystemFont, 'Segoe UI', sans-serif, 'Noto Sans CJK JP'">6</text><path class="grid-line" d="M 42 40 L 622 40" fill="none" stroke="#E7EAF0" stroke-width="1"/><text x="34" y="44" fill="#626B78" text-anchor="end" font-size="11" font-family="system-ui, -apple-system, BlinkMacSystemFont, 'Segoe UI', sans-serif, 'Noto Sans CJK JP'">8</text><text x="42" y="344" fill="#626B78" text-anchor="middle" font-size="10" font-family="system-ui, -apple-system, BlinkMacSystemFont, 'Segoe UI', sans-serif, 'Noto Sans CJK JP'">0</text><text x="187" y="344" fill="#626B78" text-anchor="middle" font-size="10" font-family="system-ui, -apple-system, BlinkMacSystemFont, 'Segoe UI', sans-serif, 'Noto Sans CJK JP'">2</text><text x="332" y="344" fill="#626B78" text-anchor="middle" font-size="10" font-family="system-ui, -apple-system, BlinkMacSystemFont, 'Segoe UI', sans-serif, 'Noto Sans CJK JP'">4</text><text x="477" y="344" fill="#626B78" text-anchor="middle" font-size="10" font-family="system-ui, -apple-system, BlinkMacSystemFont, 'Segoe UI', sans-serif, 'Noto Sans CJK JP'">6</text><path class="axis-line" d="M 42 40 L 42 326 L 622 326" fill="none" stroke="#626B78" stroke-width="1"/><text x="320" y="22" fill="#20242B" text-anchor="middle" font-size="15" font-family="system-ui, -apple-system, BlinkMacSystemFont, 'Segoe UI', sans-serif, 'Noto Sans CJK JP'">Queue depth</text><g class="series-marks" clip-path="url(#plot-clip)"><g class="series series-0" data-series="0"><path class="mark-line" d="M 42 278.33 L 114.5 278.33 L 114.5 278.33 L 187 278.33 L 187 183 L 259.5 183 L 259.5 183 L 332 183 L 332 230.67 L 404.5 230.67 L 404.5 40 L 477 40 L 477 40 L 549.5 40 L 549.5 326" fill="none" stroke="#0072B2" stroke-width="2"/></g></g></svg>